<svg width="24" height="24" viewBox="0 0 24 24" fill="none" xmlns="http://www.w3.org/2000/svg">
<path d="M10.125 12.75C10.7463 12.75 11.25 12.2463 11.25 11.625C11.25 11.0037 10.7463 10.5 10.125 10.5C9.50368 10.5 9 11.0037 9 11.625C9 12.2463 9.50368 12.75 10.125 12.75Z" fill="white" style="fill:white;fill-opacity:1;"/>
<path d="M15.75 11.625C15.75 12.2463 15.2463 12.75 14.625 12.75C14.0037 12.75 13.5 12.2463 13.5 11.625C13.5 11.0037 14.0037 10.5 14.625 10.5C15.2463 10.5 15.75 11.0037 15.75 11.625Z" fill="white" style="fill:white;fill-opacity:1;"/>
<path d="M16.5 15.75C16.5 15.3358 16.1642 15 15.75 15C15.3358 15 15 15.3358 15 15.75C15 16.9926 13.9926 18 12.75 18C12.3358 18 12 18.3358 12 18.75C12 19.1642 12.3358 19.5 12.75 19.5C14.8211 19.5 16.5 17.8211 16.5 15.75Z" fill="white" style="fill:white;fill-opacity:1;"/>
<path fill-rule="evenodd" clip-rule="evenodd" d="M21.1471 5.3971C20.4877 5.77781 19.7793 5.94115 19.1459 5.90205L20.584 7.49997H21.75C22.1642 7.49997 22.5 7.83576 22.5 8.24997C22.5 8.60671 22.2509 8.90528 21.9172 8.98127L21.934 8.99997H21.751C21.7507 8.99997 21.7514 8.99997 21.751 8.99997H21V10.5C22.6569 10.5 24 11.8431 24 13.5C24 15.1568 22.6569 16.5 21 16.5H20.85C20.1551 19.9233 17.1284 22.5 13.5 22.5C10.4245 22.5 7.7814 20.6488 6.62407 18H2.25C1.00736 18 0 16.9926 0 15.75C0 14.5073 1.00736 13.5 2.25 13.5H6V8.99998L5.25 8.99997C5.24965 8.99997 5.25035 8.99997 5.25 8.99997L5.06598 8.99997L5.08281 8.98127C4.74908 8.90529 4.5 8.60672 4.5 8.24997C4.5 7.83576 4.83579 7.49997 5.25 7.49997H6.41598L10.7126 2.72589C12.2023 1.07072 14.7977 1.07072 16.2874 2.72589L17.2119 3.75322C17.332 2.91769 17.9432 2.05072 18.8971 1.49998C20.332 0.671557 21.9989 0.872383 22.6202 1.94854C23.2415 3.0247 22.582 4.56867 21.1471 5.3971ZM21.2753 3.17649C21.4024 2.87904 21.3428 2.73607 21.3212 2.69854C21.2995 2.66102 21.2054 2.53796 20.8843 2.49927C20.5626 2.46052 20.1107 2.53139 19.6471 2.79902C19.1836 3.06665 18.8962 3.42262 18.7689 3.72059C18.6419 4.01804 18.7014 4.16102 18.7231 4.19854C18.7447 4.23607 18.8388 4.35912 19.1599 4.39781C19.4816 4.43657 19.9336 4.36569 20.3971 4.09806C20.8607 3.83043 21.148 3.47446 21.2753 3.17649ZM8.43402 7.49997H18.566L17.1773 5.95701L16.5 6.34806C16.1413 6.55517 15.6826 6.43226 15.4755 6.07354C15.2684 5.71482 15.3913 5.25613 15.75 5.04902L16.1515 4.81722L15.1724 3.72934C14.2786 2.73624 12.7214 2.73623 11.8276 3.72934L8.43402 7.49997ZM19.5 8.99998H7.5V13.5H9.75C10.9926 13.5 12 14.5073 12 15.75C12 16.9926 10.9926 18 9.75 18H8.30269C9.34012 19.7934 11.2792 21 13.5 21C16.8137 21 19.5 18.3137 19.5 15V8.99998ZM21 15C21.8284 15 22.5 14.3284 22.5 13.5C22.5 12.6716 21.8284 12 21 12V15ZM2.25 15C1.83579 15 1.5 15.3358 1.5 15.75C1.5 16.1642 1.83579 16.5 2.25 16.5H9.75C10.1642 16.5 10.5 16.1642 10.5 15.75C10.5 15.3358 10.1642 15 9.75 15H2.25Z" fill="white" style="fill:white;fill-opacity:1;"/>
</svg>
