<svg width="25" height="24" viewBox="0 0 25 24" fill="none" xmlns="http://www.w3.org/2000/svg">
<g clip-path="url(#clip0_3487_1746)">
<path d="M2.00012 5.25C2.00012 3.17893 3.67905 1.5 5.75012 1.5H17.7501C19.8212 1.5 21.5001 3.17893 21.5001 5.25V10.5H20.0001V5.25C20.0001 4.00736 18.9928 3 17.7501 3H5.75012C4.50748 3 3.50012 4.00736 3.50012 5.25V17.25C3.50012 18.4926 4.50748 19.5 5.75012 19.5H8.75012V21H5.75012C3.67905 21 2.00012 19.3211 2.00012 17.25V5.25Z" fill="white" style="fill:white;fill-opacity:1;"/>
<path d="M19.2188 11.9821L20.9344 15.0353L24.369 15.7205L21.3157 17.4361L20.6306 20.8707L18.915 17.8174L15.4804 17.1322L18.5337 15.4166L19.2188 11.9821Z" fill="white" style="fill:white;fill-opacity:1;"/>
<path d="M14.4439 19.1104L13.1791 17.1479L12.8617 19.461L10.8991 20.7258L13.2123 21.0432L14.4771 23.0058L14.7945 20.6926L16.757 19.4278L14.4439 19.1104Z" fill="white" style="fill:white;fill-opacity:1;"/>
</g>
<defs>
<clipPath id="clip0_3487_1746">
<rect width="24" height="24" fill="white" style="fill:white;fill-opacity:1;" transform="translate(0.5)"/>
</clipPath>
</defs>
</svg>
