<svg width="25" height="24" viewBox="0 0 25 24" fill="none" xmlns="http://www.w3.org/2000/svg">
<g clip-path="url(#clip0_3487_1782)">
<path fill-rule="evenodd" clip-rule="evenodd" d="M5.74997 4.5C3.67891 4.5 1.99997 6.17893 1.99997 8.25V12C1.99997 12.8284 2.67155 13.5 3.49997 13.5H6.93931L7.68931 14.25C8.2751 14.8358 9.22485 14.8358 9.81063 14.25L13.3204 10.7403L15.5 12.375V15.75C15.5 16.9926 14.4926 18 13.25 18H7.99997V19.5H13.25C15.321 19.5 17 17.8211 17 15.75V13.9726L20.3789 17.7739C21.2952 18.8048 23 18.1566 23 16.7774V7.22265C23 5.84337 21.2952 5.19522 20.3789 6.2261L17 10.0273V8.25C17 6.17893 15.321 4.5 13.25 4.5H5.74997ZM15.5 8.25V10.5L14.2204 9.54028C13.6232 9.0924 12.7875 9.15178 12.2597 9.67962L8.74997 13.1893L7.99997 12.4393C7.71867 12.158 7.33714 12 6.93931 12H3.49997V8.25C3.49997 7.00736 4.50733 6 5.74997 6H13.25C14.4926 6 15.5 7.00736 15.5 8.25ZM21.5 16.7774L17.2534 12L21.5 7.22265V16.7774ZM3.93952 15.0106L3.70288 15.2365L3.35841 15.5653C3.29507 15.6258 3.20849 15.6556 3.12137 15.6468L2.64751 15.5994L2.32199 15.5668L1.41728 15.4762L1.16131 15.4505C0.884206 15.4228 0.72212 15.7548 0.914417 15.9562L1.09204 16.1423L1.71986 16.8L1.94575 17.0366L2.27458 17.3811C2.33504 17.4444 2.36481 17.531 2.35609 17.6181L2.30863 18.092L2.27603 18.4175L2.18543 19.3222L2.1598 19.5782C2.13204 19.8553 2.464 20.0174 2.66545 19.8251L2.85152 19.6475L3.50922 19.0196L3.74586 18.7937L4.09033 18.4649C4.15367 18.4045 4.24025 18.3747 4.32737 18.3834L4.80123 18.4309L5.12675 18.4635L6.03146 18.5541L6.28743 18.5797C6.56454 18.6074 6.72662 18.2755 6.53432 18.074L6.3567 17.888L5.72888 17.2303L5.50299 16.9936L5.17416 16.6492C5.1137 16.5858 5.08393 16.4992 5.09265 16.4121L5.14011 15.9383L5.17271 15.6127L5.26331 14.708L5.28895 14.4521C5.3167 14.175 4.98474 14.0129 4.78329 14.2052L4.59722 14.3828L3.93952 15.0106ZM7.99997 10.5C8.8284 10.5 9.49997 9.82843 9.49997 9C9.49997 8.17157 8.8284 7.5 7.99997 7.5C7.17155 7.5 6.49997 8.17157 6.49997 9C6.49997 9.82843 7.17155 10.5 7.99997 10.5Z" fill="white" style="fill:white;fill-opacity:1;"/>
</g>
<defs>
<clipPath id="clip0_3487_1782">
<rect width="24" height="24" fill="white" style="fill:white;fill-opacity:1;" transform="translate(0.5)"/>
</clipPath>
</defs>
</svg>
