<svg width="24" height="24" viewBox="0 0 24 24" fill="none" xmlns="http://www.w3.org/2000/svg">
<path fill-rule="evenodd" clip-rule="evenodd" d="M7.7287 20.3751L3.61803 16.2137C1.87905 14.4533 1.88773 11.6191 3.63748 9.86934L10.3406 3.16621C11.5172 1.98957 13.4268 1.99541 14.5962 3.17924L20.8154 9.47503C21.9747 10.6487 21.9689 12.5382 20.8024 13.7047L14.112 20.3947C12.347 22.1597 9.4828 22.1508 7.7287 20.3751ZM8.79585 19.321L4.68518 15.1596C3.52585 13.986 3.53164 12.0965 4.69814 10.93L5.50527 10.1229L13.884 18.5015L13.0514 19.3341C11.8747 20.5107 9.96525 20.5048 8.79585 19.321ZM14.9446 17.4409L19.7417 12.644C20.325 12.0608 20.3279 11.116 19.7482 10.5292L13.5291 4.23339C12.9443 3.64147 11.9896 3.63855 11.4013 4.22688L6.56593 9.0622L14.9446 17.4409Z" fill="white" style="fill:white;fill-opacity:1;"/>
</svg>
