<svg width="24" height="24" viewBox="0 0 24 24" fill="none" xmlns="http://www.w3.org/2000/svg">
<g id="image-to-image">
<g id="Vector">
<path d="M5.25 1.5C3.17893 1.5 1.5 3.17893 1.5 5.25V17.25C1.5 19.3211 3.17893 21 5.25 21H8.25C8.66421 21 9 20.6642 9 20.25C9 19.8358 8.66421 19.5 8.25 19.5H5.25C4.00736 19.5 3 18.4926 3 17.25V14.6857L7.875 9.81066L9.31434 11.25C9.90013 11.8358 10.8499 11.8358 11.4357 11.25L14.125 8.56066L16.7197 11.1553L17.7803 10.0947L15.1857 7.5C14.5999 6.91421 13.6501 6.91421 13.0643 7.5L10.375 10.1893L8.93566 8.75C8.34987 8.16421 7.40013 8.16421 6.81434 8.75L3 12.5643V5.25C3 4.00736 4.00736 3 5.25 3H17.25C18.4926 3 19.5 4.00736 19.5 5.25V10.5H21V5.25C21 3.17893 19.3211 1.5 17.25 1.5H5.25Z" fill="white" style="fill:white;fill-opacity:1;"/>
<path d="M21.2282 12.3037L21.0252 15.8L23.5472 18.2301L20.0508 18.0271L17.6208 20.5491L17.8238 17.0527L15.3018 14.6227L18.7981 14.8257L21.2282 12.3037Z" fill="white" style="fill:white;fill-opacity:1;"/>
<path d="M13.9438 19.1104L12.679 17.1479L12.3616 19.461L10.399 20.7258L12.7122 21.0432L13.977 23.0058L14.2943 20.6926L16.2569 19.4278L13.9438 19.1104Z" fill="white" style="fill:white;fill-opacity:1;"/>
</g>
</g>
</svg>
