<svg width="24" height="24" viewBox="0 0 24 24" fill="none" xmlns="http://www.w3.org/2000/svg">
<path d="M3 2.99994H9V4.49994H5.56066L10.2803 9.21961L9.21967 10.2803L4.5 5.5606V8.99994H3V2.99994Z" fill="white" style="fill:white;fill-opacity:1;"/>
<path d="M15 2.99994H21V8.99994H19.5V5.5606L14.7803 10.2803L13.7197 9.21961L18.4393 4.49994H15V2.99994Z" fill="white" style="fill:white;fill-opacity:1;"/>
<path d="M5.56066 19.4999L10.2803 14.7803L9.21967 13.7196L4.5 18.4393V14.9999H3V20.9999H9V19.4999H5.56066Z" fill="white" style="fill:white;fill-opacity:1;"/>
<path d="M21.2282 12.3036L21.0252 15.8L23.5472 18.23L20.0508 18.027L17.6208 20.549L17.8238 17.0527L15.3018 14.6226L18.7981 14.8257L21.2282 12.3036Z" fill="white" style="fill:white;fill-opacity:1;"/>
<path d="M13.9438 19.1104L12.679 17.1478L12.3616 19.461L10.399 20.7258L12.7122 21.0431L13.977 23.0057L14.2943 20.6925L16.2569 19.4277L13.9438 19.1104Z" fill="white" style="fill:white;fill-opacity:1;"/>
</svg>
