<svg width="24" height="24" viewBox="0 0 24 24" fill="none" xmlns="http://www.w3.org/2000/svg">
<g id="text-to-image">
<path id="Vector" fill-rule="evenodd" clip-rule="evenodd" d="M5.85012 1.5C3.44768 1.5 1.50012 3.44756 1.50012 5.85V16.65C1.50012 19.0524 3.44768 21 5.85012 21H8.25012V19.5H5.85012C4.27611 19.5 3.00012 18.224 3.00012 16.65V5.85C3.00012 4.27599 4.27611 3 5.85012 3H16.6501C18.2241 3 19.5001 4.27599 19.5001 5.85V9.75H21.0001V5.85C21.0001 3.44756 19.0526 1.5 16.6501 1.5H5.85012ZM6.75012 6H6.00012V6.75V8.25H7.50012V7.5H10.5001V15H9.75003V16.5H11.2501H12.75V15H12.0001V7.5H15.0001V8.25H16.5001V6.75V6H15.7501H11.2501H6.75012ZM21.2293 12.3037L21.0263 15.8L23.5483 18.2301L20.0519 18.0271L17.6219 20.5491L17.8249 17.0527L15.3029 14.6227L18.7992 14.8257L21.2293 12.3037ZM13.9439 19.1114L12.6791 17.1488L12.3617 19.462L10.3991 20.7268L12.7123 21.0442L13.9771 23.0067L14.2945 20.6936L16.257 19.4288L13.9439 19.1114Z" fill="white" style="fill:white;fill-opacity:1;"/>
</g>
</svg>
