<svg width="24" height="24" viewBox="0 0 24 24" fill="none" xmlns="http://www.w3.org/2000/svg">
<path d="M9.60296 1.77502C10.3736 1.59502 11.1762 1.5 12 1.5V3C11.2919 3 10.6037 3.08164 9.94415 3.23571L9.60296 1.77502Z" fill="white" style="fill:white;fill-opacity:1;"/>
<path d="M4.42322 4.7307C4.98049 4.15 5.60398 3.63317 6.28168 3.19235L7.09959 4.44973C6.51853 4.8277 5.98367 5.27102 5.50549 5.7693C5.05222 6.24163 4.65005 6.76318 4.30781 7.32499L3.02678 6.54463C3.42604 5.88922 3.89496 5.28117 4.42322 4.7307Z" fill="white" style="fill:white;fill-opacity:1;"/>
<path d="M1.5 12C1.5 11.2193 1.58533 10.4577 1.74746 9.72424L3.2121 10.048C3.07332 10.6758 3 11.3289 3 12C3 12.6897 3.07745 13.3605 3.22382 14.0043L1.76115 14.3368C1.59014 13.5846 1.5 12.8024 1.5 12Z" fill="white" style="fill:white;fill-opacity:1;"/>
<path d="M22.5 12C22.5 12.8024 22.4099 13.5846 22.2389 14.3368L20.7762 14.0043C20.9226 13.3605 21 12.6897 21 12H22.5Z" fill="white" style="fill:white;fill-opacity:1;"/>
<path d="M6.41246 20.8914C5.07914 20.0518 3.94817 18.9209 3.10864 17.5875L4.37798 16.7883C5.09794 17.9317 6.06827 18.9021 7.2117 19.622L6.41246 20.8914Z" fill="white" style="fill:white;fill-opacity:1;"/>
<path d="M20.8914 17.5875C20.0518 18.9209 18.9209 20.0518 17.5875 20.8914L16.7883 19.622C17.9317 18.9021 18.9021 17.9317 19.622 16.7883L20.8914 17.5875Z" fill="white" style="fill:white;fill-opacity:1;"/>
<path d="M12 22.5C11.1976 22.5 10.4154 22.4099 9.66317 22.2389L9.9957 20.7762C10.6395 20.9226 11.3103 21 12 21C12.6897 21 13.3605 20.9226 14.0043 20.7762L14.3368 22.2389C13.5846 22.4099 12.8024 22.5 12 22.5Z" fill="white" style="fill:white;fill-opacity:1;"/>
<path d="M20.9538 1.80368L20.7507 5.30005L23.2728 7.73008L19.7764 7.52706L17.3464 10.0491L17.5494 6.55274L15.0274 4.12271L18.5237 4.32573L20.9538 1.80368Z" fill="white" style="fill:white;fill-opacity:1;"/>
<path d="M13.2301 9.75732L12.8725 6.86076L11.2585 9.29235L8.3619 9.64988L10.7935 11.2639L11.151 14.1605L12.7651 11.7289L15.6616 11.3714L13.2301 9.75732Z" fill="white" style="fill:white;fill-opacity:1;"/>
</svg>
