<svg width="25" height="24" viewBox="0 0 25 24" fill="none" xmlns="http://www.w3.org/2000/svg">
<path d="M5.75 1.5C3.67893 1.5 2 3.17893 2 5.25V17.25C2 19.3211 3.67893 21 5.75 21H11.75V19.5H5.75C4.50736 19.5 3.5 18.4926 3.5 17.25V5.25C3.5 4.00736 4.50736 3 5.75 3H17.75C18.9926 3 20 4.00736 20 5.25V11.25H21.5V5.25C21.5 3.17893 19.8211 1.5 17.75 1.5H5.75Z" fill="white" style="fill:white;fill-opacity:1;"/>
<path d="M9 7C8.17157 7 7.5 7.67157 7.5 8.5C7.5 9.32843 8.17157 10 9 10C9.82843 10 10.5 9.32843 10.5 8.5C10.5 7.67157 9.82843 7 9 7Z" fill="white" style="fill:white;fill-opacity:1;"/>
<path d="M15 7C14.1716 7 13.5 7.67157 13.5 8.5C13.5 9.32843 14.1716 10 15 10C15.8284 10 16.5 9.32843 16.5 8.5C16.5 7.67157 15.8284 7 15 7Z" fill="white" style="fill:white;fill-opacity:1;"/>
<path d="M8.53027 13.2197C9.4195 14.1089 10.5835 14.5533 11.7499 14.5533V16.0533C10.2019 16.0533 8.65144 15.4621 7.46961 14.2803L8.53027 13.2197Z" fill="white" style="fill:white;fill-opacity:1;"/>
<path d="M20.5304 17.4697L23.3107 20.25L20.5304 23.0303L19.4697 21.9697L20.4394 21H16.2501C15.0074 21 14.0001 19.9926 14.0001 18.75V18H15.5001V18.75C15.5001 19.1642 15.8358 19.5 16.2501 19.5H20.4394L19.4697 18.5303L20.5304 17.4697Z" fill="white" style="fill:white;fill-opacity:1;"/>
<path d="M17.5304 15.9697L16.5607 15H20.7501C21.1643 15 21.5001 15.3358 21.5001 15.75V16.5H23.0001V15.75C23.0001 14.5073 21.9927 13.5 20.7501 13.5H16.5607L17.5304 12.5303L16.4697 11.4697L13.6894 14.25L16.4697 17.0303L17.5304 15.9697Z" fill="white" style="fill:white;fill-opacity:1;"/>
</svg>
