<svg width="25" height="24" viewBox="0 0 25 24" fill="none" xmlns="http://www.w3.org/2000/svg">
<g clip-path="url(#clip0_3487_1835)">
<path fill-rule="evenodd" clip-rule="evenodd" d="M5.74997 4.5C3.67891 4.5 1.99997 6.17893 1.99997 8.25V12V13.5H3.49997V12V8.25C3.49997 7.00736 4.50733 6 5.74997 6H13.25C14.4926 6 15.5 7.00736 15.5 8.25V15.75C15.5 16.9926 14.4926 18 13.25 18H9.49997H7.99997V19.5H9.49997H13.25C15.321 19.5 17 17.8211 17 15.75V13.9726L20.3789 17.7739C21.2952 18.8048 23 18.1566 23 16.7774V7.22265C23 5.84337 21.2952 5.19522 20.3789 6.2261L17 10.0273V8.25C17 6.17893 15.321 4.5 13.25 4.5H5.74997ZM21.5 16.7774L17.2534 12L21.5 7.22265V16.7774ZM4.99997 7.5H5.74997H9.49997H13.25H14V8.25V9.75H12.5V9H10.25V15H11V16.5H9.49997H7.99997V15H8.74997V9H6.49997V9.75H4.99997V8.25V7.5ZM3.70288 15.2365L3.93952 15.0106L4.59722 14.3828L4.78329 14.2052C4.98474 14.0129 5.3167 14.175 5.28895 14.4521L5.26331 14.708L5.17271 15.6127L5.14011 15.9383L5.09265 16.4121C5.08393 16.4992 5.1137 16.5858 5.17416 16.6492L5.50299 16.9936L5.72888 17.2303L6.3567 17.888L6.53432 18.074C6.72662 18.2755 6.56454 18.6074 6.28743 18.5797L6.03146 18.5541L5.12675 18.4635L4.80123 18.4309L4.32737 18.3834C4.24025 18.3747 4.15367 18.4045 4.09033 18.4649L3.74586 18.7937L3.50922 19.0196L2.85152 19.6475L2.66545 19.8251C2.464 20.0174 2.13204 19.8553 2.1598 19.5782L2.18543 19.3222L2.27603 18.4175L2.30863 18.092L2.35609 17.6181C2.36481 17.531 2.33504 17.4444 2.27458 17.3811L1.94575 17.0366L1.71986 16.8L1.09204 16.1423L0.914417 15.9562C0.72212 15.7548 0.884206 15.4228 1.16131 15.4505L1.41728 15.4762L2.32199 15.5668L2.64751 15.5994L3.12137 15.6468C3.20849 15.6556 3.29507 15.6258 3.35841 15.5653L3.70288 15.2365Z" fill="white" style="fill:white;fill-opacity:1;"/>
</g>
<defs>
<clipPath id="clip0_3487_1835">
<rect width="24" height="24" fill="white" style="fill:white;fill-opacity:1;" transform="translate(0.5)"/>
</clipPath>
</defs>
</svg>
