<svg width="25" height="24" viewBox="0 0 25 24" fill="none" xmlns="http://www.w3.org/2000/svg">
<path fill-rule="evenodd" clip-rule="evenodd" d="M18.5 9H20H21.5V4.5H16.7439C16.1262 6.24779 14.4593 7.5 12.5 7.5C10.5407 7.5 8.87381 6.24779 8.25606 4.5H3.5V9H5H6.5V10.5V18H11V19.5H6.5H5V18V12V10.5H3.5H2V9V4.5V3H3.5H8H9.5C9.5 4.65685 10.8431 6 12.5 6C14.1569 6 15.5 4.65685 15.5 3H17H21.5H23V4.5V9V10.5H21.5H20H18.5V9ZM16.5607 15L17.5303 15.9697L16.4697 17.0303L14.2197 14.7803L13.6893 14.25L14.2197 13.7197L16.4697 11.4697L17.5303 12.5303L16.5607 13.5H20.75C21.9926 13.5 23 14.5074 23 15.75V16.5H21.5V15.75C21.5 15.3358 21.1642 15 20.75 15H16.5607ZM20.5303 17.4697L22.7803 19.7197L23.3107 20.25L22.7803 20.7803L20.5303 23.0303L19.4697 21.9697L20.4393 21H16.25C15.0074 21 14 19.9926 14 18.75V18H15.5V18.75C15.5 19.1642 15.8358 19.5 16.25 19.5H20.4393L19.4697 18.5303L20.5303 17.4697Z" fill="white" style="fill:white;fill-opacity:1;"/>
</svg>
