<svg width="25" height="24" viewBox="0 0 25 24" fill="none" xmlns="http://www.w3.org/2000/svg">
<g clip-path="url(#clip0_3487_1922)">
<path fill-rule="evenodd" clip-rule="evenodd" d="M11 1.5C10.398 1.5 9.81047 1.55901 9.24272 1.67132L8.95162 0.199841C9.61472 0.0686597 10.2997 0 11 0C11.7003 0 12.3853 0.0686596 13.0484 0.199841L12.7573 1.67132C12.1895 1.55901 11.602 1.5 11 1.5ZM5.99999 3.01546C5.0182 3.67275 4.17275 4.5182 3.51546 5.49999L2.26901 4.66551C3.03538 3.52079 4.02079 2.53538 5.16551 1.76901L5.99999 3.01546ZM18.4845 5.49999C17.8272 4.5182 16.9818 3.67275 16 3.01546L16.8345 1.76901C17.9792 2.53538 18.9646 3.52079 19.731 4.66551L18.4845 5.49999ZM20 10.5C20 9.89797 19.941 9.31047 19.8287 8.74272L21.3002 8.45162C21.4313 9.11472 21.5 9.79971 21.5 10.5H20ZM2.17132 8.74272C2.05901 9.31047 2 9.89797 2 10.5C2 11.102 2.05901 11.6895 2.17132 12.2573L0.699841 12.5484C0.56866 11.8853 0.5 11.2003 0.5 10.5C0.5 9.79971 0.56866 9.11472 0.699841 8.45162L2.17132 8.74272ZM3.51546 15.5C4.17275 16.4818 5.0182 17.3272 5.99999 17.9845L5.16551 19.231C4.02079 18.4646 3.03538 17.4792 2.26901 16.3345L3.51546 15.5ZM9.24272 19.3287C9.81047 19.441 10.398 19.5 11 19.5V21C10.2997 21 9.61472 20.9313 8.95162 20.8002L9.24272 19.3287ZM18.5 13.5C16.0147 13.5 14 15.5147 14 18C14 20.4853 16.0147 22.5 18.5 22.5C20.9853 22.5 23 20.4853 23 18C23 15.5147 20.9853 13.5 18.5 13.5ZM12.5 18C12.5 14.6863 15.1863 12 18.5 12C21.8137 12 24.5 14.6863 24.5 18C24.5 21.3137 21.8137 24 18.5 24C15.1863 24 12.5 21.3137 12.5 18ZM17.75 21V18.75H15.5V17.25H17.75V15H19.25V17.25H21.5V18.75H19.25V21H17.75Z" fill="white" style="fill:white;fill-opacity:1;"/>
</g>
<defs>
<clipPath id="clip0_3487_1922">
<rect width="24" height="24" fill="white" style="fill:white;fill-opacity:1;" transform="translate(0.5)"/>
</clipPath>
</defs>
</svg>
