<svg xmlns="http://www.w3.org/2000/svg" viewBox="0 0 36 36" fill="none" class="h-full" data-v-6bcbbae5=""><path d="M30.75 3H5.25C4.65326 3 4.08097 3.23705 3.65901 3.65901C3.23705 4.08097 3 4.65326 3 5.25V30.75C3 31.3467 3.23705 31.919 3.65901 32.341C4.08097 32.7629 4.65326 33 5.25 33H30.75C31.3467 33 31.919 32.7629 32.341 32.341C32.7629 31.919 33 31.3467 33 30.75V5.25C33 4.65326 32.7629 4.08097 32.341 3.65901C31.919 3.23705 31.3467 3 30.75 3ZM12 28.5H7.5V15H12V28.5ZM9.75 12.375C9.23427 12.3603 8.73433 12.1939 8.31263 11.8966C7.89093 11.5994 7.56617 11.1844 7.37894 10.7037C7.19171 10.2229 7.15031 9.69762 7.25991 9.19346C7.36951 8.68929 7.62525 8.22861 7.99517 7.86896C8.36509 7.50931 8.8328 7.26665 9.33985 7.17129C9.8469 7.07594 10.3708 7.13212 10.8461 7.33281C11.3214 7.53351 11.727 7.86982 12.0123 8.29972C12.2975 8.72963 12.4498 9.23406 12.45 9.75C12.4382 10.4555 12.1475 11.1277 11.6416 11.6195C11.1356 12.1114 10.4556 12.383 9.75 12.375ZM28.5 28.5H24V21.39C24 19.26 23.1 18.495 21.93 18.495C21.587 18.5178 21.2518 18.6082 20.9438 18.761C20.6358 18.9137 20.361 19.1258 20.1352 19.385C19.9094 19.6443 19.7371 19.9456 19.6281 20.2716C19.5191 20.5977 19.4755 20.9421 19.5 21.285C19.4926 21.3548 19.4926 21.4252 19.5 21.495V28.5H15V15H19.35V16.95C19.7888 16.2825 20.3916 15.7389 21.1008 15.3712C21.8099 15.0034 22.6016 14.824 23.4 14.85C25.725 14.85 28.44 16.14 28.44 20.34L28.5 28.5Z" fill="white" data-v-6bcbbae5=""></path></svg>