<svg xmlns="http://www.w3.org/2000/svg" viewBox="0 0 36 36" fill="none" class="h-full" data-v-6bcbbae5=""><path d="M18.002 12.5C14.9734 12.5 12.502 14.9715 12.502 18C12.502 21.0285 14.9734 23.5 18.002 23.5C21.0305 23.5 23.502 21.0285 23.502 18C23.502 14.9715 21.0305 12.5 18.002 12.5Z" fill="white" data-v-6bcbbae5=""></path><path d="M32.9983 18C32.9983 15.9286 33.0171 13.876 32.9008 11.8083C32.7844 9.40669 32.2366 7.27525 30.4804 5.51907C28.7205 3.75913 26.5929 3.21501 24.1913 3.09868C22.1199 2.98235 20.0673 3.00112 17.9997 3.00112C15.9284 3.00112 13.8758 2.98235 11.8082 3.09868C9.40658 3.21501 7.27517 3.76288 5.51902 5.51907C3.75911 7.27901 3.21501 9.40669 3.09868 11.8083C2.98235 13.8797 3.00112 15.9324 3.00112 18C3.00112 20.0676 2.98235 22.124 3.09868 24.1917C3.21501 26.5933 3.76287 28.7247 5.51902 30.4809C7.27893 32.2409 9.40658 32.785 11.8082 32.9013C13.8795 33.0176 15.9321 32.9989 17.9997 32.9989C20.0711 32.9989 22.1237 33.0176 24.1913 32.9013C26.5929 32.785 28.7243 32.2371 30.4804 30.4809C32.2403 28.721 32.7844 26.5933 32.9008 24.1917C33.0208 22.124 32.9983 20.0714 32.9983 18ZM17.996 25.6964C13.7369 25.6964 10.2997 22.2591 10.2997 18C10.2997 13.7409 13.7369 10.3035 17.996 10.3035C22.255 10.3035 25.6923 13.7409 25.6923 18C25.6923 22.2591 22.255 25.6964 17.996 25.6964ZM26.0075 11.7858C25.0131 11.7858 24.2101 10.9828 24.2101 9.98834C24.2101 8.99392 25.0131 8.19087 26.0075 8.19087C27.0019 8.19087 27.8049 8.99392 27.8049 9.98834C27.8012 10.9865 27.0019 11.7858 26.0075 11.7858Z" fill="white" data-v-6bcbbae5=""></path></svg>