<svg xmlns="http://www.w3.org/2000/svg" viewBox="0 0 36 36" fill="none" class="h-full" data-v-6bcbbae5=""><path d="M35.2487 8.71768C34.8348 7.05812 33.6134 5.75111 32.0665 5.30828C29.258 4.5 18 4.5 18 4.5C18 4.5 6.74196 4.5 3.93348 5.30398C2.38259 5.74682 1.16518 7.05382 0.751339 8.71338C-1.53269e-07 11.7229 0 18 0 18C0 18 -1.53269e-07 24.2771 0.751339 27.2823C1.16518 28.9419 2.38661 30.2489 3.93348 30.6917C6.74196 31.5 18 31.5 18 31.5C18 31.5 29.258 31.5 32.0665 30.6917C33.6174 30.2489 34.8348 28.9419 35.2487 27.2823C36 24.2771 36 18 36 18C36 18 36 11.7229 35.2487 8.71768ZM14.4241 23.7611V12.2389L23.7455 17.957L14.4241 23.7611Z" fill="white" data-v-6bcbbae5=""></path></svg>