<svg xmlns="http://www.w3.org/2000/svg" viewBox="0 0 36 36" fill="none" class="h-full" data-v-6bcbbae5=""><path fill-rule="evenodd" clip-rule="evenodd" d="M3 18C3 9.71528 9.71528 3 18 3C26.2847 3 33 9.71528 33 18C33 26.2847 26.2847 33 18 33H5.17222C4.37083 33 3.96944 32.0306 4.53611 31.4639L7.39306 28.6069C4.67917 25.8917 3 22.1417 3 18ZM25.9668 9.86562C25.9668 11.2364 24.8556 12.3476 23.4849 12.3476C22.3106 12.3476 21.3268 11.532 21.0689 10.4365C19.6264 10.6319 18.5111 11.8714 18.5111 13.3666L18.5109 13.3761C20.7314 13.4585 22.7614 14.0842 24.3694 15.0796C24.9602 14.6253 25.6999 14.3553 26.5028 14.3553C28.4373 14.3553 30.0056 15.9235 30.0056 17.858C30.0056 19.2545 29.1883 20.4601 28.006 21.0227C27.8953 25.0929 23.4615 28.3668 18.0081 28.3668C12.5583 28.3668 8.12671 25.0971 8.01048 21.0306C6.81918 20.4715 5.99425 19.2611 5.99425 17.858C5.99425 15.9235 7.5625 14.3553 9.49703 14.3553C10.3032 14.3553 11.0457 14.6276 11.6377 15.0853C13.2302 14.0971 15.2377 13.472 17.4349 13.3789L17.4347 13.368C17.4347 11.2836 19.0248 9.56297 21.0554 9.35559C21.2906 8.22952 22.289 7.38368 23.4849 7.38368C24.8556 7.38368 25.9668 8.49488 25.9668 9.86562Z" fill="white" data-v-6bcbbae5=""></path><path d="M18.0049 22.8496C16.7882 22.8496 15.6216 22.9093 14.5438 23.0191C14.3591 23.0371 14.2424 23.2288 14.3146 23.3996C14.9188 24.8427 16.3438 25.8566 18.0049 25.8566C19.666 25.8566 21.0924 24.8427 21.6952 23.3996C21.7674 23.2288 21.6493 23.0371 21.466 23.0191C20.3868 22.9093 19.2216 22.8496 18.0049 22.8496Z" fill="white" data-v-6bcbbae5=""></path><path d="M15.05 20.1504C14.9916 21.4115 14.1486 21.8698 13.1666 21.8698C12.1847 21.8698 11.4361 21.1851 11.4944 19.924C11.5527 18.6629 12.3958 17.8379 13.3777 17.8379C14.3597 17.8379 15.1083 18.8907 15.05 20.1518V20.1504Z" fill="white" data-v-6bcbbae5=""></path><path d="M20.9651 20.1504C21.0234 21.4115 21.8665 21.8698 22.8484 21.8698C23.8304 21.8698 24.579 21.1851 24.5207 19.924C24.4623 18.6629 23.6193 17.8379 22.6373 17.8379C21.6554 17.8379 20.9068 18.8907 20.9651 20.1518V20.1504Z" fill="white" data-v-6bcbbae5=""></path></svg>