<svg width="16" height="16" viewBox="0 0 16 16" fill="none" xmlns="http://www.w3.org/2000/svg">
<rect x="1.00006" y="1.00003" width="14" height="14" rx="7" fill="#FFD400" style="fill:#FFD400;fill:color(display-p3 1.0000 0.8314 0.0000);fill-opacity:1;"/>
<rect x="3.00006" y="3.00003" width="10" height="10" rx="5" fill="#FFA800" stroke="black" stroke-opacity="0.1" style="fill:#FFA800;fill:color(display-p3 1.0000 0.6600 0.0000);fill-opacity:1;stroke:black;stroke-opacity:0.1;" stroke-linecap="round"/>
<mask id="path-3-outside-1_20_5629" maskUnits="userSpaceOnUse" x="3.50006" y="4.50003" width="9" height="7" fill="black">
<rect fill="white" x="3.50006" y="4.50003" width="9" height="7"/>
<path d="M7.19118 5.58803C7.24736 5.53153 7.32411 5.50003 7.40386 5.50003L10.3497 5.50003C10.439 5.50003 10.5087 5.57703 10.4992 5.66553L10.3497 7.06703C10.3387 7.16853 10.2529 7.24603 10.1501 7.24603L8.6416 7.24603C8.6416 7.24603 8.74956 7.35534 8.95892 7.56403L10.1803 8.78153C10.2205 8.82153 10.24 8.87753 10.234 8.93353C10.2295 8.97603 10.2104 9.01553 10.1803 9.04553L8.80894 10.412C8.75276 10.4685 8.67601 10.5 8.59626 10.5H5.65041C5.65028 10.5 5.65016 10.5 5.65003 10.5C5.56093 10.4998 5.49142 10.4229 5.50093 10.3345L5.65041 8.93303C5.66145 8.83153 5.74722 8.75403 5.85005 8.75403H7.35852C7.35852 8.75403 7.25056 8.64472 7.0412 8.43603L5.81979 7.21853C5.77967 7.17853 5.7601 7.12253 5.76612 7.06653C5.77064 7.02403 5.7897 6.98453 5.81979 6.95453L7.19118 5.58803Z"/>
</mask>
<path d="M7.19118 5.58803C7.24736 5.53153 7.32411 5.50003 7.40386 5.50003L10.3497 5.50003C10.439 5.50003 10.5087 5.57703 10.4992 5.66553L10.3497 7.06703C10.3387 7.16853 10.2529 7.24603 10.1501 7.24603L8.6416 7.24603C8.6416 7.24603 8.74956 7.35534 8.95892 7.56403L10.1803 8.78153C10.2205 8.82153 10.24 8.87753 10.234 8.93353C10.2295 8.97603 10.2104 9.01553 10.1803 9.04553L8.80894 10.412C8.75276 10.4685 8.67601 10.5 8.59626 10.5H5.65041C5.65028 10.5 5.65016 10.5 5.65003 10.5C5.56093 10.4998 5.49142 10.4229 5.50093 10.3345L5.65041 8.93303C5.66145 8.83153 5.74722 8.75403 5.85005 8.75403H7.35852C7.35852 8.75403 7.25056 8.64472 7.0412 8.43603L5.81979 7.21853C5.77967 7.17853 5.7601 7.12253 5.76612 7.06653C5.77064 7.02403 5.7897 6.98453 5.81979 6.95453L7.19118 5.58803Z" fill="#FFE980" style="fill:#FFE980;fill:color(display-p3 1.0000 0.9137 0.5020);fill-opacity:1;"/>
<path d="M5.65003 11C5.92617 11 6.15003 10.7762 6.15003 10.5C6.15003 10.2239 5.92617 10 5.65003 10V11ZM5.64355 10C5.3674 10 5.14355 10.2239 5.14355 10.5C5.14355 10.7762 5.3674 11 5.64355 11V10ZM5.65003 10H5.64355V11H5.65003V10ZM7.19118 5.58803L7.89703 6.29641L7.9003 6.29313L7.19118 5.58803ZM5.81979 6.95453L5.11395 6.24616L5.11382 6.24629L5.81979 6.95453ZM5.76612 7.06653L6.7604 7.1734L6.76053 7.17216L5.76612 7.06653ZM5.81979 7.21853L6.52577 6.51029L6.52577 6.51029L5.81979 7.21853ZM7.0412 8.43603L7.74718 7.72779L7.74718 7.72779L7.0412 8.43603ZM7.35852 8.75403V9.75403H9.75172L8.07 8.05132L7.35852 8.75403ZM5.65041 8.93303L4.65627 8.82494L4.65605 8.82698L5.65041 8.93303ZM5.50093 10.3345L6.49519 10.4416L6.49529 10.4406L5.50093 10.3345ZM5.65003 10.5L5.64755 11.5H5.65003V10.5ZM8.59626 10.5L8.59627 9.50003H8.59626V10.5ZM8.80894 10.412L8.10309 9.70365L8.09982 9.70694L8.80894 10.412ZM10.1803 9.04553L10.8862 9.7539L10.8863 9.75377L10.1803 9.04553ZM10.234 8.93353L9.23973 8.82665L9.23959 8.82791L10.234 8.93353ZM10.1803 8.78153L10.8863 8.07329L10.8863 8.07329L10.1803 8.78153ZM8.95892 7.56403L8.25295 8.27227L8.25295 8.27227L8.95892 7.56403ZM8.6416 7.24603V6.24603L6.2484 6.24603L7.93012 7.94874L8.6416 7.24603ZM10.1501 7.24603L10.1501 6.24603H10.1501V7.24603ZM10.3497 7.06703L11.3439 7.17511L11.3441 7.17308L10.3497 7.06703ZM10.4992 5.66553L9.50494 5.55846L9.50483 5.55948L10.4992 5.66553ZM7.40386 4.50003C7.0616 4.50003 6.72854 4.63506 6.48207 4.88294L7.9003 6.29313C7.76619 6.428 7.58661 6.50003 7.40386 6.50003V4.50003ZM6.48534 4.87966L5.11395 6.24616L6.52564 7.6629L7.89703 6.2964L6.48534 4.87966ZM5.11382 6.24629C4.92252 6.43698 4.80063 6.68876 4.77172 6.9609L6.76053 7.17216C6.74065 7.35931 6.65688 7.53208 6.52577 7.66277L5.11382 6.24629ZM4.77185 6.95966C4.73367 7.31491 4.85754 7.67131 5.11382 7.92677L6.52577 6.51029C6.70179 6.68575 6.78654 6.93015 6.7604 7.1734L4.77185 6.95966ZM5.11382 7.92677L6.33523 9.14427L7.74718 7.72779L6.52577 6.51029L5.11382 7.92677ZM7.35852 7.75403H5.85005L5.85005 9.75403H7.35852V7.75403ZM5.85005 7.75403C5.23525 7.75403 4.72231 8.21749 4.65627 8.82495L6.64455 9.04112C6.60058 9.44557 6.25919 9.75403 5.85005 9.75403L5.85005 7.75403ZM4.65605 8.82698L4.50657 10.2285L6.49529 10.4406L6.64477 9.03909L4.65605 8.82698ZM4.50668 10.2275C4.4329 10.9126 4.97135 11.4984 5.64755 11.5L5.65251 9.50003C6.1505 9.50127 6.54993 9.9332 6.49519 10.4416L4.50668 10.2275ZM5.65003 11.5L5.65041 11.5L5.65041 9.50003L5.65003 9.50003L5.65003 11.5ZM6.33523 9.14427C6.43895 9.24766 6.51735 9.32622 6.56959 9.37872C6.59571 9.40496 6.61529 9.42469 6.62824 9.43774C6.63471 9.44427 6.63952 9.44913 6.64266 9.4523C6.64423 9.45389 6.64538 9.45505 6.64611 9.45579C6.64648 9.45616 6.64674 9.45643 6.64689 9.45659C6.64697 9.45666 6.64702 9.45672 6.64705 9.45674C6.64706 9.45675 6.64707 9.45676 6.64707 9.45676C6.64707 9.45676 6.64706 9.45676 6.64706 9.45675C6.64706 9.45675 6.64706 9.45675 6.64705 9.45675C6.64705 9.45674 6.64705 9.45674 7.35852 8.75403C8.07 8.05132 8.07 8.05132 8.06999 8.05131C8.06999 8.05131 8.06998 8.0513 8.06998 8.0513C8.06997 8.05129 8.06996 8.05127 8.06994 8.05126C8.06992 8.05123 8.06988 8.0512 8.06984 8.05116C8.06976 8.05108 8.06965 8.05097 8.06952 8.05084C8.06926 8.05057 8.06888 8.05019 8.06841 8.04971C8.06746 8.04875 8.06608 8.04736 8.06429 8.04555C8.06071 8.04193 8.05545 8.03662 8.04853 8.02964C8.03469 8.01567 8.0142 7.99503 7.98716 7.96787C7.93308 7.91353 7.85281 7.83309 7.74718 7.72779L6.33523 9.14427ZM8.59625 11.5C8.93852 11.5 9.27159 11.365 9.51806 11.1171L8.09982 9.70694C8.23393 9.57206 8.41351 9.50003 8.59627 9.50003L8.59625 11.5ZM9.51478 11.1204L10.8862 9.7539L9.47448 8.33716L8.1031 9.70366L9.51478 11.1204ZM10.8863 9.75377C11.0776 9.56308 11.1995 9.31131 11.2284 9.03915L9.23959 8.82791C9.25947 8.64075 9.34325 8.46798 9.47436 8.33729L10.8863 9.75377ZM11.2283 9.04041C11.2665 8.68515 11.1426 8.32875 10.8863 8.07329L9.47435 9.48977C9.29833 9.31431 9.21358 9.06991 9.23973 8.82665L11.2283 9.04041ZM10.8863 8.07329L9.66489 6.85579L8.25295 8.27227L9.47435 9.48977L10.8863 8.07329ZM8.6416 8.24603L10.1501 8.24603V6.24603L8.6416 6.24603V8.24603ZM10.1501 8.24603C10.7649 8.24603 11.2778 7.78257 11.3439 7.17511L9.35557 6.95895C9.39954 6.55449 9.74093 6.24603 10.1501 6.24603L10.1501 8.24603ZM11.3441 7.17308L11.4935 5.77158L9.50483 5.55948L9.35535 6.96098L11.3441 7.17308ZM11.4934 5.7726C11.5673 5.08648 11.0272 4.50003 10.3497 4.50003V6.50003C9.85077 6.50003 9.45011 6.06758 9.50494 5.55846L11.4934 5.7726ZM9.66489 6.85579C9.56117 6.7524 9.48278 6.67384 9.43053 6.62135C9.40441 6.5951 9.38483 6.57537 9.37188 6.56232C9.36541 6.55579 9.3606 6.55093 9.35746 6.54776C9.35589 6.54617 9.35474 6.54501 9.35401 6.54427C9.35364 6.5439 9.35338 6.54363 9.35323 6.54348C9.35315 6.5434 9.3531 6.54334 9.35307 6.54332C9.35306 6.54331 9.35305 6.5433 9.35306 6.5433C9.35306 6.5433 9.35306 6.5433 9.35306 6.54331C9.35306 6.54331 9.35307 6.54331 9.35307 6.54331C9.35307 6.54332 9.35308 6.54332 8.6416 7.24603C7.93012 7.94874 7.93012 7.94874 7.93013 7.94875C7.93013 7.94875 7.93014 7.94876 7.93014 7.94876C7.93015 7.94877 7.93017 7.94879 7.93018 7.9488C7.93021 7.94883 7.93024 7.94886 7.93028 7.9489C7.93036 7.94898 7.93047 7.94909 7.9306 7.94922C7.93087 7.94949 7.93124 7.94987 7.93171 7.95035C7.93267 7.95131 7.93404 7.9527 7.93583 7.95451C7.93941 7.95813 7.94467 7.96344 7.95159 7.97042C7.96543 7.98439 7.98592 8.00503 8.01296 8.0322C8.06704 8.08653 8.14731 8.16697 8.25295 8.27227L9.66489 6.85579ZM8.59626 9.50003H5.65041L5.65041 11.5H8.59626V9.50003ZM7.40386 6.50003L10.3497 6.50003V4.50003H7.40386V6.50003Z" fill="black" fill-opacity="0.1" style="fill:black;fill-opacity:0.1;" mask="url(#path-3-outside-1_20_5629)"/>
</svg>
