<svg width="60" height="16" viewBox="0 0 60 16" fill="none" xmlns="http://www.w3.org/2000/svg">
  <path d="M2.17876 5.2976L2.23014 4.8048H14.929C15.2581 4.8048 15.5326 4.5568 15.5679 4.232L15.958 0.5312C15.9869 0.2464 15.7638 0 15.478 0H5.24511C4.98985 0 4.74422 0.1008 4.56441 0.2816L0.175206 4.6544C0.0788808 4.7504 0.017875 4.8768 0.00342631 5.0128C-0.0158387 5.192 0.0467725 5.3712 0.175206 5.4992L4.08439 9.3952C4.2931 9.6032 4.56602 9.7328 4.8582 9.7632L13.8212 10.7024L13.7699 11.1952H1.07263C0.743523 11.1952 0.468997 11.4432 0.433678 11.768L0.0435617 15.4704C0.0130588 15.7536 0.236212 16 0.521975 16H10.7549C11.0102 16 11.2558 15.8992 11.4356 15.7184L15.8248 11.344C15.9211 11.248 15.9821 11.1216 15.9966 10.9856C16.0158 10.8064 15.9532 10.6272 15.8248 10.4992L11.9156 6.6032C11.7069 6.3952 11.434 6.2656 11.1418 6.2352L2.17876 5.296V5.2976Z" fill="white"/>
  <path d="M27.1325 5.32217C27.0838 4.87163 26.8813 4.52003 26.5252 4.26889C26.169 4.01774 25.7063 3.89141 25.1385 3.89141C24.7382 3.89141 24.3958 3.95229 24.1111 4.07254C23.825 4.19278 23.6073 4.35717 23.4551 4.56265C23.3029 4.76965 23.2253 5.00557 23.2222 5.27042C23.2222 5.49112 23.2725 5.68138 23.3744 5.84424C23.4764 6.0071 23.6149 6.14257 23.79 6.2552C23.965 6.36784 24.1598 6.46068 24.3729 6.53679C24.586 6.61289 24.8022 6.67682 25.0183 6.72857L26.0107 6.97667C26.4095 7.06952 26.7946 7.19585 27.1644 7.35415C27.5343 7.51244 27.8676 7.71184 28.1614 7.95385C28.4552 8.19434 28.6896 8.48657 28.8616 8.82752C29.0335 9.16847 29.1203 9.56725 29.1203 10.0254C29.1203 10.6449 28.962 11.1898 28.6454 11.6601C28.3288 12.1304 27.8707 12.4973 27.274 12.7606C26.6758 13.0239 25.9544 13.1563 25.1066 13.1563C24.2588 13.1563 23.5693 13.0285 22.965 12.7743C22.3607 12.5201 21.8889 12.1472 21.5495 11.6586C21.21 11.17 21.0274 10.5733 21 9.87167H22.8859C22.9133 10.24 23.0274 10.546 23.2268 10.791C23.4262 11.0361 23.688 11.2187 24.0092 11.339C24.3318 11.4592 24.691 11.5201 25.0914 11.5201C25.4917 11.5201 25.8737 11.4577 26.1888 11.3313C26.5038 11.205 26.7504 11.03 26.93 10.8047C27.1096 10.5794 27.201 10.3146 27.204 10.0117C27.201 9.7362 27.1203 9.50789 26.9605 9.32676C26.8022 9.14564 26.5815 8.99495 26.2968 8.87166C26.0122 8.7499 25.6819 8.64031 25.3029 8.54441L24.099 8.23391C23.2283 8.01016 22.5403 7.67074 22.035 7.21411C21.5312 6.75749 21.2785 6.1517 21.2785 5.3937C21.2785 4.77117 21.4475 4.22475 21.7869 3.75595C22.1263 3.28714 22.5891 2.92337 23.1735 2.66309C23.7595 2.40281 24.4216 2.27344 25.1629 2.27344C25.9041 2.27344 26.5723 2.40281 27.1386 2.66309C27.7048 2.92337 28.1507 3.28258 28.4734 3.74225C28.7976 4.20192 28.9635 4.73008 28.9742 5.32521H27.1294L27.1325 5.32217Z" fill="white"/>
  <path d="M34.5021 5.06514V6.51112H29.9404V5.06514H34.5021ZM31.0668 3.16406H32.9374V10.6131C32.9374 10.8643 32.9755 11.0561 33.0531 11.1885C33.1307 11.3209 33.2327 11.4107 33.3605 11.4594C33.4884 11.5081 33.6284 11.5325 33.7837 11.5325C33.9009 11.5325 34.009 11.5233 34.1064 11.5066C34.2038 11.4898 34.2799 11.4746 34.3316 11.4594L34.6467 12.9206C34.5462 12.9556 34.4047 12.9937 34.2205 13.0348C34.0363 13.0759 33.8111 13.1002 33.5462 13.1078C33.0774 13.1215 32.6558 13.05 32.2814 12.8932C31.9054 12.7364 31.6086 12.4929 31.391 12.1626C31.1718 11.8323 31.0652 11.4183 31.0683 10.9236V3.16558L31.0668 3.16406Z" fill="white"/>
  <path d="M37.0796 15.9947C36.8254 15.9947 36.5895 15.9749 36.3749 15.9353C36.1602 15.8958 35.9882 15.8501 35.8604 15.7983L36.2942 14.3417C36.5666 14.4209 36.8086 14.4589 37.0233 14.4559C37.2363 14.4528 37.4251 14.3859 37.5895 14.2565C37.7523 14.1271 37.8924 13.9125 38.005 13.6142L38.1648 13.1849L35.2881 5.08594H37.2714L39.0994 11.0784H39.1816L41.0157 5.08594H43.005L39.8285 13.981C39.6808 14.4011 39.4845 14.7618 39.2394 15.0632C38.9944 15.3646 38.696 15.5959 38.3429 15.7557C37.9898 15.9155 37.5682 15.9962 37.0796 15.9962V15.9947Z" fill="white"/>
  <path d="M45.8023 2.42188V13.0003H43.9316V2.42188H45.8023Z" fill="white"/>
  <path d="M49.6897 13.1589C49.1874 13.1589 48.7353 13.0691 48.3335 12.8879C47.9317 12.7068 47.6151 12.4389 47.3837 12.0843C47.1524 11.7296 47.0352 11.2928 47.0352 10.7722C47.0352 10.3248 47.1173 9.95489 47.2833 9.66113C47.4492 9.36736 47.6744 9.13449 47.9606 8.95945C48.2467 8.78441 48.5694 8.65046 48.9286 8.55914C49.2878 8.46781 49.6607 8.40236 50.0474 8.35975C50.5116 8.31104 50.8891 8.2669 51.1783 8.22732C51.4675 8.18775 51.679 8.12535 51.8114 8.04163C51.9439 7.95792 52.0108 7.8255 52.0108 7.64589V7.61545C52.0108 7.2258 51.8952 6.92442 51.6653 6.71133C51.434 6.49824 51.1022 6.39169 50.6684 6.39169C50.2102 6.39169 49.848 6.49215 49.5816 6.69154C49.3152 6.89094 49.1341 7.12686 49.0413 7.39931L47.2954 7.15121C47.4324 6.66871 47.6607 6.26536 47.9773 5.93964C48.2939 5.61391 48.682 5.37038 49.1402 5.20599C49.5983 5.04313 50.1037 4.96094 50.6592 4.96094C51.0413 4.96094 51.4218 5.00508 51.8008 5.09488C52.1798 5.18468 52.5253 5.33233 52.8389 5.53628C53.1524 5.74177 53.4051 6.01878 53.5953 6.37039C53.7871 6.72199 53.8815 7.16035 53.8815 7.68699V12.9975H52.0839V11.9077H52.0215C51.9073 12.1284 51.749 12.3339 51.5436 12.5257C51.3381 12.7175 51.0824 12.8697 50.7734 12.9854C50.4659 13.101 50.1052 13.1589 49.6912 13.1589H49.6897ZM50.1752 11.7844C50.5512 11.7844 50.8754 11.7098 51.1509 11.5592C51.4264 11.41 51.6395 11.2106 51.7886 10.9625C51.9378 10.7144 52.0139 10.445 52.0139 10.1512V9.21668C51.956 9.26538 51.8571 9.30953 51.7171 9.35062C51.577 9.39172 51.4218 9.42825 51.2498 9.45869C51.0778 9.48913 50.9073 9.51653 50.7384 9.54088C50.5694 9.56523 50.4233 9.58502 50.3 9.60329C50.0215 9.64134 49.7719 9.70374 49.5512 9.78898C49.3305 9.87574 49.1569 9.99446 49.0291 10.1482C48.9012 10.3019 48.8373 10.4983 48.8373 10.7403C48.8373 11.0843 48.9636 11.3445 49.2148 11.5196C49.4659 11.6946 49.7871 11.7829 50.1752 11.7829V11.7844Z" fill="white"/>
  <path d="M55.4761 13.0082V5.07357H57.2889V6.39626H57.3711C57.5157 5.93811 57.7638 5.58499 58.1169 5.33537C58.4701 5.08575 58.8734 4.96094 59.3285 4.96094C59.432 4.96094 59.5477 4.9655 59.6771 4.97311C59.8065 4.98225 59.9145 4.99442 59.9998 5.01117V6.73112C59.9206 6.70372 59.7958 6.67937 59.6253 6.65654C59.4549 6.63371 59.2905 6.62305 59.1322 6.62305C58.7912 6.62305 58.4853 6.69611 58.2159 6.84223C57.9449 6.98835 57.7334 7.19079 57.5781 7.44954C57.4229 7.7083 57.3452 8.0051 57.3452 8.343V13.0067H55.4746L55.4761 13.0082Z" fill="white"/>
</svg>
